<svg width="24" height="24" viewBox="0 0 24 24" fill="none" xmlns="http://www.w3.org/2000/svg">
<path d="M7.45952 3.89188H5.8379H4.86492C4.5406 3.99998 3.89195 4.34593 3.89195 4.86485C3.89195 5.5135 3.56763 5.5135 3.56763 6.8108C3.56763 8.10809 3.56763 7.45944 3.89195 8.10809C4.21628 8.75674 3.89195 8.75674 4.21628 9.08107C4.5406 9.40539 4.3727 9.40539 4.5406 10.3784C4.7085 11.3513 5.18925 11.3513 5.51357 12C5.8379 12.6486 5.8379 12.3243 5.8379 12.973C5.8379 13.6216 6.16222 13.2973 6.81087 13.9459C7.45952 14.5946 7.13519 14.2703 7.45952 14.9189C7.78384 15.5676 8.43249 15.5676 9.08114 16.2162C9.72979 16.8649 10.0541 17.5135 10.3784 17.8378C10.7028 18.1621 11.3514 18.1621 11.6757 18.4865C12.0001 18.8108 13.6217 19.7838 14.2703 19.7838C14.919 19.7838 15.2433 20.1081 15.892 19.7838C16.5406 19.4594 16.5406 20.1081 17.5136 19.7838C18.4865 19.4594 18.1622 19.7838 19.4595 19.1351L20.1082 18.8108C20.2163 18.5946 20.4325 18.0973 20.4325 17.8378C20.4325 17.5784 20.2163 17.2973 20.1082 17.1892C20.0001 16.973 19.719 16.4757 19.4595 16.2162C19.1352 15.8919 18.8109 15.8919 18.8109 15.5676C18.8109 15.3081 18.3784 15.2432 18.1622 15.2432C17.946 15.1351 17.3838 14.9189 16.8649 14.9189C16.2163 14.9189 15.892 14.9189 15.5676 15.2432C15.3082 15.5027 15.2433 15.7838 15.2433 15.8919C14.8109 15.8919 13.8811 15.827 13.6217 15.5676C13.3622 15.3081 11.5676 14.5946 10.7028 14.2703L9.40546 13.6216C9.08114 13.1892 8.43249 12.1946 8.43249 11.6757C8.43249 11.027 7.78384 10.7027 7.78384 10.3784C7.78384 10.054 7.78384 10.054 8.43249 9.40539C9.08114 8.75674 8.75682 8.43242 9.08114 8.10809C9.3406 7.84863 8.97303 6.9189 8.75682 6.48647L7.45952 3.89188Z" fill="white"/>
<path fill-rule="evenodd" clip-rule="evenodd" d="M9.207 14.1444C11.525 16.4624 13.678 17.7544 15.28 18.4724C16.679 19.0994 18.33 19.2561 19.617 17.9691L19.911 17.6741L16.375 15.4241C15.703 16.4041 14.432 16.9791 13.163 16.4441C12.202 16.0381 10.93 15.3441 9.793 14.2071C8.656 13.0701 7.963 11.7981 7.557 10.8371C7.021 9.56808 7.595 8.29708 8.576 7.62508L6.326 4.08908L6.031 4.38308C4.744 5.67008 4.253 6.67243 4.879 8.07143C5.597 9.67343 6.889 11.8264 9.207 14.1444ZM14.463 20.2974C12.648 19.4844 10.291 18.0564 7.793 15.5584C5.295 13.0614 3.867 10.7034 3.053 8.88843C1.978 6.48843 2.96 4.62708 4.617 2.96908L4.911 2.67408C5.12275 2.4622 5.37938 2.30058 5.66195 2.20117C5.94453 2.10177 6.24582 2.0671 6.54359 2.09974C6.84135 2.13237 7.12799 2.23148 7.38232 2.38974C7.63665 2.548 7.85218 2.76136 8.013 3.01408L10.843 7.46408C10.918 7.58212 10.9673 7.71457 10.9879 7.85287C11.0085 7.99118 10.9999 8.13226 10.9626 8.26702C10.9252 8.40177 10.8601 8.52721 10.7713 8.63522C10.6825 8.74323 10.572 8.83141 10.447 8.89408L9.814 9.21108C9.382 9.42708 9.294 9.80808 9.399 10.0591C9.738 10.8621 10.305 11.8901 11.207 12.7931C12.11 13.6951 13.138 14.2621 13.941 14.6011C14.192 14.7071 14.573 14.6181 14.789 14.1861L15.106 13.5531C15.1686 13.428 15.2567 13.3174 15.3647 13.2285C15.4726 13.1396 15.5981 13.0744 15.7328 13.0369C15.8676 12.9995 16.0087 12.9908 16.147 13.0113C16.2854 13.0318 16.4179 13.0812 16.536 13.1561L20.986 15.9871C21.2387 16.1479 21.4521 16.3634 21.6103 16.6178C21.7686 16.8721 21.8677 17.1587 21.9003 17.4565C21.933 17.7543 21.8983 18.0556 21.7989 18.3381C21.6995 18.6207 21.5379 18.8773 21.326 19.0891L21.031 19.3831C19.374 21.0411 16.864 21.3734 14.463 20.2974Z" fill="white"/>
</svg>
