<svg width="32" height="33" viewBox="0 0 32 33" fill="none" xmlns="http://www.w3.org/2000/svg">
<path d="M31.9499 8.31607C32.222 9.05132 31.3863 10.7669 29.4429 13.4628C29.1708 13.8305 28.821 14.3206 28.3934 14.9334C27.4994 16.0771 26.9942 16.8328 26.8775 17.2004C26.6832 17.6906 26.7609 18.1603 27.1108 18.6096C27.3051 18.8547 27.7521 19.3449 28.4517 20.0801H28.51V20.1414C30.1036 21.6528 31.1725 22.9395 31.7167 24.0015L31.8333 24.2466L31.9499 24.7061V25.2882L31.5418 25.7477L30.5506 25.9622L26.2945 26.0847C26.0224 26.1256 25.7018 26.0847 25.3325 25.9622C24.9633 25.8396 24.6815 25.7171 24.4871 25.5945L24.1373 25.3495C23.7875 25.1044 23.3988 24.7367 22.9713 24.2466C22.5437 23.7564 22.1647 23.3071 21.8344 22.8986C21.504 22.4901 21.1639 22.1531 20.8141 21.8876C20.4642 21.6221 20.1533 21.5302 19.8812 21.6119C19.8424 21.6119 19.7938 21.6323 19.7355 21.6732C19.6772 21.714 19.58 21.8059 19.444 21.9489C19.3079 22.0919 19.1913 22.2655 19.0941 22.4697C18.997 22.6739 18.9095 22.9701 18.8318 23.3581C18.754 23.7462 18.7152 24.2057 18.7152 24.7367C18.7152 24.9001 18.6957 25.0533 18.6569 25.1963C18.618 25.3392 18.5791 25.4516 18.5403 25.5333L18.482 25.5945C18.2487 25.8396 17.9378 25.9622 17.5491 25.9622H15.6834C14.8672 26.0439 14.0412 25.9622 13.2056 25.7171C12.3699 25.472 11.6411 25.1554 11.0192 24.7674C10.3973 24.3793 9.83372 23.9913 9.32843 23.6032C8.82314 23.2152 8.43446 22.8782 8.16238 22.5923L7.75426 22.1634C7.63765 22.0817 7.48218 21.9183 7.28784 21.6732C7.0935 21.4281 6.69509 20.8971 6.09263 20.0801C5.49017 19.2632 4.89743 18.385 4.3144 17.4455C3.73137 16.506 3.05117 15.2703 2.27381 13.7386C1.49644 12.2068 0.777369 10.6239 0.116605 8.99005C0.0388685 8.78581 0 8.62242 0 8.49988C0 8.37734 0.0194342 8.27522 0.0583027 8.19353L0.116605 8.13226C0.272079 7.88717 0.583027 7.76463 1.04945 7.76463H5.65536C5.77197 7.76463 5.88857 7.79526 6.00518 7.85654L6.29669 8.00971L6.35499 8.07098C6.54934 8.19353 6.68538 8.37734 6.76311 8.62242C6.99632 9.19429 7.25869 9.79679 7.5502 10.4299C7.84171 11.0631 8.06521 11.543 8.22068 11.8698L8.45389 12.36C8.80371 13.0544 9.12437 13.6569 9.41589 14.1675C9.7074 14.6781 9.96976 15.0763 10.203 15.3623C10.4362 15.6482 10.6694 15.8728 10.9026 16.0362C11.1358 16.1996 11.3302 16.2813 11.4856 16.2813C11.6411 16.2813 11.7966 16.2609 11.9521 16.22L12.0104 16.1281L12.2144 15.7299L12.4476 14.9334L12.5934 13.5241V11.3184C12.5545 10.869 12.4962 10.4503 12.4185 10.0623C12.3407 9.67425 12.263 9.39853 12.1853 9.23514L12.127 9.05132C11.8549 8.64285 11.369 8.37734 10.6694 8.2548C10.5528 8.2548 10.5917 8.11183 10.786 7.8259C10.9803 7.62166 11.1941 7.45827 11.4273 7.33573C12.0104 7.00895 13.3319 6.86598 15.3919 6.90683C16.2859 6.90683 17.0438 6.98853 17.6657 7.15192C17.8601 7.19276 18.035 7.26425 18.1904 7.36637C18.3459 7.46848 18.4625 7.61145 18.5403 7.79526C18.618 7.97908 18.6763 8.16289 18.7152 8.3467C18.754 8.53052 18.7735 8.79603 18.7735 9.14323V10.0929C18.7346 10.4197 18.7152 10.8282 18.7152 11.3184V12.7889C18.7152 12.9114 18.7055 13.1565 18.686 13.5241C18.6666 13.8917 18.6569 14.1777 18.6569 14.3819C18.6569 14.5862 18.6763 14.821 18.7152 15.0865C18.754 15.352 18.8221 15.5767 18.9192 15.7605C19.0164 15.9443 19.1427 16.0771 19.2982 16.1588C19.3759 16.1996 19.4634 16.2303 19.5606 16.2507C19.6577 16.2711 19.8035 16.2098 19.9978 16.0669C20.1922 15.9239 20.4059 15.7197 20.6392 15.4542C20.8724 15.1887 21.1639 14.7904 21.5137 14.2594C21.8635 13.7284 22.2328 13.1156 22.6214 12.4212C23.2822 11.1958 23.8847 9.86827 24.4288 8.43861C24.4677 8.35692 24.5163 8.26501 24.5746 8.16289C24.6329 8.06077 24.7009 7.98929 24.7786 7.94844H24.837L24.8953 7.88717L25.1285 7.8259H25.4783L30.2591 7.76463C30.6867 7.72378 31.0462 7.7442 31.3377 7.8259C31.6292 7.90759 31.7944 8.00971 31.8333 8.13226L31.9499 8.31607Z" fill="white"/>
</svg>
