<svg width="24" height="24" viewBox="0 0 24 24" fill="none" xmlns="http://www.w3.org/2000/svg">
<path fill-rule="evenodd" clip-rule="evenodd" d="M3.50005 12C3.50005 10.3189 3.99857 8.67547 4.93256 7.27765C5.86655 5.87983 7.19407 4.79037 8.74724 4.14702C10.3004 3.50368 12.0095 3.33535 13.6583 3.66332C15.3072 3.9913 16.8217 4.80085 18.0105 5.98959C19.1992 7.17834 20.0088 8.69289 20.3367 10.3417C20.6647 11.9906 20.4964 13.6996 19.853 15.2528C19.2097 16.806 18.1202 18.1335 16.7224 19.0675C15.3246 20.0015 13.6812 20.5 12.0001 20.5C10.3919 20.5029 8.81628 20.047 7.45805 19.186C7.33723 19.1096 7.20143 19.0599 7.05981 19.0404C6.91818 19.021 6.77402 19.0321 6.63705 19.073L3.75705 19.932L4.84205 17.395C4.90512 17.2473 4.93168 17.0866 4.9195 16.9264C4.90731 16.7663 4.85674 16.6115 4.77205 16.475C3.93798 15.1316 3.4973 13.5813 3.50005 12ZM12.0001 1.5C6.20105 1.5 1.50005 6.201 1.50005 12C1.50005 13.838 1.97305 15.568 2.80505 17.073L1.08005 21.107C1.00539 21.2817 0.982065 21.4741 1.01281 21.6617C1.04355 21.8492 1.12708 22.0241 1.25363 22.1658C1.38017 22.3076 1.54449 22.4104 1.72734 22.4621C1.91018 22.5138 2.10399 22.5124 2.28605 22.458L6.78605 21.116C8.37308 22.0254 10.1709 22.5027 12.0001 22.5C17.799 22.5 22.5001 17.799 22.5001 12C22.5001 6.201 17.799 1.5 12.0001 1.5ZM14.2931 14.182L12.9781 15.108C12.2535 14.6911 11.5882 14.1789 11.0001 13.585C10.3686 12.9544 9.82259 12.2437 9.37605 11.471L10.2111 10.762C10.385 10.6144 10.5033 10.4117 10.5462 10.1876C10.5892 9.9635 10.5542 9.73146 10.4471 9.53L9.38305 7.53C9.31225 7.39717 9.21237 7.28205 9.09087 7.1932C8.96937 7.10435 8.82938 7.04408 8.68134 7.01688C8.5333 6.98967 8.38103 6.99624 8.23588 7.03608C8.09073 7.07593 7.95645 7.14803 7.84305 7.247L7.52705 7.522C6.76805 8.184 6.31905 9.272 6.69105 10.374C7.28956 12.1171 8.27996 13.6997 9.58605 15C11.3991 16.813 13.2411 17.527 14.3191 17.805C15.1871 18.028 16.0081 17.729 16.5871 17.257L17.1781 16.775C17.3027 16.6734 17.4009 16.5432 17.4645 16.3956C17.5281 16.2479 17.5552 16.0871 17.5434 15.9268C17.5316 15.7664 17.4814 15.6113 17.3969 15.4745C17.3124 15.3377 17.1962 15.2233 17.0581 15.141L15.3801 14.141C15.2141 14.042 15.0231 13.9932 14.83 14.0004C14.6369 14.0077 14.4501 14.0708 14.2921 14.182H14.2931Z" fill="white"/>
</svg>
