<svg xmlns="http://www.w3.org/2000/svg" version="1.1" xmlns:xlink="http://www.w3.org/1999/xlink" width="1174.1683" height="1174.1683"><svg xmlns:dc="http://purl.org/dc/elements/1.1/" xmlns:cc="http://creativecommons.org/ns#" xmlns:rdf="http://www.w3.org/1999/02/22-rdf-syntax-ns#" xmlns:svg="http://www.w3.org/2000/svg" xmlns="http://www.w3.org/2000/svg" xmlns:sodipodi="http://sodipodi.sourceforge.net/DTD/sodipodi-0.dtd" xmlns:inkscape="http://www.inkscape.org/namespaces/inkscape" version="1.1" id="SvgjsSvg1036" width="1174.1683" height="1174.1683" viewBox="0 0 1174.1683 1174.1683" sodipodi:docname="Ingush_national_solar_symbol.svg" inkscape:version="0.92.3 (2405546, 2018-03-11)">
  <metadata id="SvgjsMetadata1035">
    <rdf:rdf>
      <cc:work rdf:about="">
        <dc:format>image/svg+xml</dc:format>
        <dc:type rdf:resource="http://purl.org/dc/dcmitype/StillImage"></dc:type>
        <dc:title></dc:title>
      </cc:work>
    </rdf:rdf>
  </metadata>
  <defs id="SvgjsDefs1034"></defs>
  <sodipodi:namedview pagecolor="#ffffff" bordercolor="#666666" borderopacity="1" objecttolerance="10" gridtolerance="10" guidetolerance="10" inkscape:pageopacity="0" inkscape:pageshadow="2" inkscape:window-width="1920" inkscape:window-height="1017" id="SvgjsSodipodi:namedview1033" showgrid="false" inkscape:zoom="0.5" inkscape:cx="246.08417" inkscape:cy="647.14393" inkscape:window-x="-8" inkscape:window-y="-8" inkscape:window-maximized="1" inkscape:current-layer="svg10"></sodipodi:namedview>
  <g id="SvgjsG1032"></g>
  <g transform="matrix(5.1950516,0,0,5.4620273,-2505.9041,-1619.5465)" id="SvgjsG1031">
    <circle id="SvgjsCircle1030" cx="596" cy="420" r="55" style="fill:none;stroke:#d81e05;stroke-width:30"></circle>
    <g id="SvgjsG1029">
      <path id="SvgjsPath1028" d="m 575.4,324 c 5,-6.3 12.5,-10 20.5,-10 14.3,0 26,11.6 26,26 0,14.3 -11.7,25.9 -26,26" inkscape:connector-curvature="0" style="fill:none;stroke:#d81e05;stroke-width:20;stroke-linecap:round"></path>
    </g>
    <g id="SvgjsG1027" transform="rotate(120,2441,1793)">
      <path id="SvgjsPath1026" d="m 2150.7,3981.4 c 4.9,-6.3 12.5,-9.9 20.5,-10 14.3,0 26,11.6 26,26 0,14.3 -11.7,25.9 -25.9,26" inkscape:connector-curvature="0" style="fill:none;stroke:#d81e05;stroke-width:20;stroke-linecap:round"></path>
    </g>
    <g id="SvgjsG1025" transform="rotate(-120,2441,1793)">
      <path id="SvgjsPath1024" d="m 4532.4,784.7 c 4.9,-6.3 12.5,-10 20.5,-9.9 14.3,0 26,11.7 26,26 0,14.3 -11.6,26 -25.9,26" inkscape:connector-curvature="0" style="fill:none;stroke:#d81e05;stroke-width:20;stroke-linecap:round"></path>
    </g>
  </g>
</svg><style>@media (prefers-color-scheme: light) { :root { filter: none; } }
@media (prefers-color-scheme: dark) { :root { filter: none; } }
</style></svg>